<svg width="1440" height="1142" viewBox="0 0 1440 1142" fill="none" xmlns="http://www.w3.org/2000/svg">
<g filter="url(#filter0_f_386_70)">
<g clip-path="url(#paint0_angular_386_70_clip_path)" data-figma-skip-parse="true"><g transform="matrix(-0.233018 -0.304589 0.518239 -0.396465 692.573 476.946)"><foreignObject x="-1103" y="-1103" width="2206" height="2206"><div xmlns="http://www.w3.org/1999/xhtml" style="background:conic-gradient(from 90deg,rgba(141, 10, 93, 1) 0deg,rgba(223, 16, 147, 1) 55.3818deg,rgba(66, 168, 246, 1) 98.9771deg,rgba(120, 10, 82, 1) 182.457deg,rgba(14, 123, 206, 1) 284.835deg,rgba(121, 8, 80, 1) 346.831deg,rgba(141, 10, 93, 1) 360deg);height:100%;width:100%;opacity:0.6"></div></foreignObject></g></g><path d="M1040.37 265.016L904.552 138.507L699.989 174.761L692.193 332.443L623.546 422.102L441.547 433.54L305.253 476.743L234.892 407.812L175.485 553.986L541.165 529.194L104.459 782.074L358.484 982.458L437.595 878.498L609.553 1009.46L775.145 620.264L907.68 707.103L1158.27 652.008L1337.01 466.793L1380.03 301.675L1236.01 132.342L1040.37 265.016Z" data-figma-gradient-fill="{&#34;type&#34;:&#34;GRADIENT_ANGULAR&#34;,&#34;stops&#34;:[{&#34;color&#34;:{&#34;r&#34;:0.87804359197616577,&#34;g&#34;:0.063152261078357697,&#34;b&#34;:0.57925021648406982,&#34;a&#34;:1.0},&#34;position&#34;:0.15383824706077576},{&#34;color&#34;:{&#34;r&#34;:0.26171088218688965,&#34;g&#34;:0.66227412223815918,&#34;b&#34;:0.96858721971511841,&#34;a&#34;:1.0},&#34;position&#34;:0.27493634819984436},{&#34;color&#34;:{&#34;r&#34;:0.47140091657638550,&#34;g&#34;:0.041462928056716919,&#34;b&#34;:0.32314747571945190,&#34;a&#34;:1.0},&#34;position&#34;:0.50682520866394043},{&#34;color&#34;:{&#34;r&#34;:0.057391699403524399,&#34;g&#34;:0.48274081945419312,&#34;b&#34;:0.80800783634185791,&#34;a&#34;:1.0},&#34;position&#34;:0.79120910167694092},{&#34;color&#34;:{&#34;r&#34;:0.47804361581802368,&#34;g&#34;:0.034382726997137070,&#34;b&#34;:0.31536799669265747,&#34;a&#34;:1.0},&#34;position&#34;:0.96342062950134277}],&#34;stopsVar&#34;:[{&#34;color&#34;:{&#34;r&#34;:0.87804359197616577,&#34;g&#34;:0.063152261078357697,&#34;b&#34;:0.57925021648406982,&#34;a&#34;:1.0},&#34;position&#34;:0.15383824706077576},{&#34;color&#34;:{&#34;r&#34;:0.26171088218688965,&#34;g&#34;:0.66227412223815918,&#34;b&#34;:0.96858721971511841,&#34;a&#34;:1.0},&#34;position&#34;:0.27493634819984436},{&#34;color&#34;:{&#34;r&#34;:0.47140091657638550,&#34;g&#34;:0.041462928056716919,&#34;b&#34;:0.32314747571945190,&#34;a&#34;:1.0},&#34;position&#34;:0.50682520866394043},{&#34;color&#34;:{&#34;r&#34;:0.057391699403524399,&#34;g&#34;:0.48274081945419312,&#34;b&#34;:0.80800783634185791,&#34;a&#34;:1.0},&#34;position&#34;:0.79120910167694092},{&#34;color&#34;:{&#34;r&#34;:0.47804361581802368,&#34;g&#34;:0.034382726997137070,&#34;b&#34;:0.31536799669265747,&#34;a&#34;:1.0},&#34;position&#34;:0.96342062950134277}],&#34;transform&#34;:{&#34;m00&#34;:-466.03677368164062,&#34;m01&#34;:1036.47753906250,&#34;m02&#34;:407.35256958007812,&#34;m10&#34;:-609.17877197265625,&#34;m11&#34;:-792.9309082031250,&#34;m12&#34;:1178.0007324218750},&#34;opacity&#34;:0.60000002384185791,&#34;blendMode&#34;:&#34;NORMAL&#34;,&#34;visible&#34;:true}"/>
<path d="M1040.37 265.016L904.552 138.507L699.989 174.761L692.193 332.443L623.546 422.102L441.547 433.54L305.253 476.743L234.892 407.812L175.485 553.986L541.165 529.194L104.459 782.074L358.484 982.458L437.595 878.498L609.553 1009.46L775.145 620.264L907.68 707.103L1158.27 652.008L1337.01 466.793L1380.03 301.675L1236.01 132.342L1040.37 265.016Z" stroke="black"/>
</g>
<defs>
<filter id="filter0_f_386_70" x="-27.529" y="0.576874" width="1539.21" height="1140.77" filterUnits="userSpaceOnUse" color-interpolation-filters="sRGB">
<feFlood flood-opacity="0" result="BackgroundImageFix"/>
<feBlend mode="normal" in="SourceGraphic" in2="BackgroundImageFix" result="shape"/>
<feGaussianBlur stdDeviation="65.55" result="effect1_foregroundBlur_386_70"/>
</filter>
<clipPath id="paint0_angular_386_70_clip_path"><path d="M1040.37 265.016L904.552 138.507L699.989 174.761L692.193 332.443L623.546 422.102L441.547 433.54L305.253 476.743L234.892 407.812L175.485 553.986L541.165 529.194L104.459 782.074L358.484 982.458L437.595 878.498L609.553 1009.46L775.145 620.264L907.68 707.103L1158.27 652.008L1337.01 466.793L1380.03 301.675L1236.01 132.342L1040.37 265.016Z"/></clipPath></defs>
</svg>
