<svg width="18" height="17" viewBox="0 0 18 17" fill="none" xmlns="http://www.w3.org/2000/svg">
<g style="mix-blend-mode:screen" filter="url(#filter0_f_63_126)">
<path d="M2.52003 12.6719C2.40285 12.5631 2.17827 12.2641 2.08063 12.1281L2.00739 11.8562V11.6523C1.98298 11.6296 2.02203 11.5571 2.08061 11.4484L2.08063 11.4484C2.13921 11.3396 2.39797 11.2671 2.52003 11.2444C2.69091 11.2444 3.19378 11.2852 3.83824 11.4484C4.48269 11.6115 5.13204 11.6976 5.37615 11.7203H6.18172C6.35748 11.7203 6.64553 11.539 6.76759 11.4484C6.96288 11.3124 7.42669 10.9725 7.71963 10.7007C8.0858 10.3608 8.59843 9.68105 8.7449 9.5451C8.89137 9.40915 9.33077 8.11765 9.55047 7.7098C9.77018 7.30196 10.1363 6.62222 10.4293 6.14641C10.7222 5.67059 11.1616 5.46667 11.3081 5.33072C11.4253 5.22196 11.7963 5.14946 11.9672 5.1268L12.1137 4.8549C12.1625 4.80959 12.4212 4.74614 13.0657 4.8549C13.8713 4.99085 14.6768 4.37909 14.6768 4.03922V3.08758C14.6768 2.67974 14.1642 2.54379 14.0177 2.54379C13.8713 2.54379 13.2122 2.67974 13.0657 2.67974C12.9192 2.67974 12.9192 2.47582 12.9192 2.2719C12.9192 2.10876 13.0657 2.02266 13.1389 2H14.1642C14.4571 2 15.1162 2.47582 15.2627 2.74771C15.3799 2.96523 15.3115 3.78998 15.2627 4.17516C15.1895 4.46972 15.1455 5.22196 15.5556 5.87451C15.9658 6.52706 16.0195 6.91678 15.995 7.03007L15.8486 7.16601C15.8486 7.48322 15.8193 8.32157 15.7021 9.13726C15.5556 10.1569 14.8233 11.1085 14.6768 11.3804C14.5304 11.6523 13.4319 12.9438 12.2601 13.8275C11.0884 14.7111 9.55047 14.983 9.33077 14.983C9.11107 14.983 8.0858 15.051 6.91406 14.915C5.74232 14.7791 5.00998 14.4392 4.79028 14.3712C4.57058 14.3033 3.3256 13.4876 3.17913 13.3516C3.03267 13.2157 2.6665 12.8078 2.52003 12.6719Z" stroke="url(#paint0_linear_63_126)"/>
</g>
<defs>
<filter id="filter0_f_63_126" x="0.800183" y="0.8" width="16.3997" height="15.4" filterUnits="userSpaceOnUse" color-interpolation-filters="sRGB">
<feFlood flood-opacity="0" result="BackgroundImageFix"/>
<feBlend mode="normal" in="SourceGraphic" in2="BackgroundImageFix" result="shape"/>
<feGaussianBlur stdDeviation="0.35" result="effect1_foregroundBlur_63_126"/>
</filter>
<linearGradient id="paint0_linear_63_126" x1="9" y1="2" x2="9" y2="15" gradientUnits="userSpaceOnUse">
<stop stop-color="#FD070B"/>
<stop offset="1" stop-color="#5C0809"/>
</linearGradient>
</defs>
</svg>
