<svg width="590" height="227" viewBox="0 0 590 227" fill="none" xmlns="http://www.w3.org/2000/svg">
<foreignObject x="-4" y="-4" width="598" height="234.026"><div xmlns="http://www.w3.org/1999/xhtml" style="backdrop-filter:blur(2px);clip-path:url(#bgblur_0_1221_19_clip_path);height:100%;width:100%"></div></foreignObject><path data-figma-bg-blur-radius="4" d="M20 0.5H570C580.77 0.5 589.5 9.23045 589.5 20V129.532C589.5 140.302 580.77 149.032 570 149.032H332C320.678 149.032 311.5 158.211 311.5 169.532V206.026C311.5 216.796 302.769 225.526 292 225.526H20C9.23058 225.526 0.500215 216.796 0.5 206.026V20C0.500002 9.23045 9.23045 0.5 20 0.5Z" fill="#28091D" fill-opacity="0.4" stroke="white"/>
<defs>
<clipPath id="bgblur_0_1221_19_clip_path" transform="translate(4 4)"><path d="M20 0.5H570C580.77 0.5 589.5 9.23045 589.5 20V129.532C589.5 140.302 580.77 149.032 570 149.032H332C320.678 149.032 311.5 158.211 311.5 169.532V206.026C311.5 216.796 302.769 225.526 292 225.526H20C9.23058 225.526 0.500215 216.796 0.5 206.026V20C0.500002 9.23045 9.23045 0.5 20 0.5Z"/>
</clipPath></defs>
</svg>
